<mxfile host="app.diagrams.net" agent="Mozilla/5.0 (Macintosh; Intel Mac OS X 10_15_7) AppleWebKit/537.36 (KHTML, like Gecko) Chrome/129.0.0.0 Safari/537.36" version="24.9.3">
  <diagram name="Page-1" id="K1Mr1sc8D-78ndegCBF7">
    <mxGraphModel dx="986" dy="565" grid="1" gridSize="10" guides="1" tooltips="1" connect="1" arrows="1" fold="1" page="1" pageScale="1" pageWidth="850" pageHeight="1100" math="0" shadow="0">
      <root>
        <mxCell id="0" />
        <mxCell id="1" parent="0" />
        <mxCell id="pV_YJKQzZUWr_kF0XKjs-7" value="0,1" style="endArrow=classic;html=1;rounded=0;curved=1;sketch=1;curveFitting=1;jiggle=2;exitX=0.067;exitY=0.325;exitDx=0;exitDy=0;exitPerimeter=0;elbow=vertical;" edge="1" parent="1" source="pV_YJKQzZUWr_kF0XKjs-6" target="pV_YJKQzZUWr_kF0XKjs-6">
          <mxGeometry width="50" height="50" relative="1" as="geometry">
            <mxPoint x="710" y="100" as="sourcePoint" />
            <mxPoint x="820" y="40" as="targetPoint" />
            <Array as="points">
              <mxPoint x="730" y="50" />
            </Array>
          </mxGeometry>
        </mxCell>
        <mxCell id="pV_YJKQzZUWr_kF0XKjs-6" value="" style="ellipse;whiteSpace=wrap;html=1;" vertex="1" parent="1">
          <mxGeometry x="700" y="120" width="120" height="80" as="geometry" />
        </mxCell>
        <mxCell id="pV_YJKQzZUWr_kF0XKjs-8" value="C" style="ellipse;whiteSpace=wrap;html=1;" vertex="1" parent="1">
          <mxGeometry x="830" y="290" width="120" height="80" as="geometry" />
        </mxCell>
        <mxCell id="pV_YJKQzZUWr_kF0XKjs-10" value="0,1" style="endArrow=classic;html=1;rounded=0;curved=1;sketch=1;curveFitting=1;jiggle=2;exitX=0.067;exitY=0.325;exitDx=0;exitDy=0;exitPerimeter=0;elbow=vertical;" edge="1" parent="1" source="pV_YJKQzZUWr_kF0XKjs-11" target="pV_YJKQzZUWr_kF0XKjs-11">
          <mxGeometry width="50" height="50" relative="1" as="geometry">
            <mxPoint x="400" y="260" as="sourcePoint" />
            <mxPoint x="510" y="200" as="targetPoint" />
            <Array as="points">
              <mxPoint x="420" y="210" />
            </Array>
          </mxGeometry>
        </mxCell>
        <mxCell id="pV_YJKQzZUWr_kF0XKjs-11" value="A" style="ellipse;whiteSpace=wrap;html=1;" vertex="1" parent="1">
          <mxGeometry x="390" y="280" width="120" height="80" as="geometry" />
        </mxCell>
        <mxCell id="pV_YJKQzZUWr_kF0XKjs-12" value="B" style="ellipse;whiteSpace=wrap;html=1;" vertex="1" parent="1">
          <mxGeometry x="710" y="125" width="100" height="70" as="geometry" />
        </mxCell>
        <mxCell id="pV_YJKQzZUWr_kF0XKjs-13" value="0,1" style="endArrow=classic;html=1;rounded=0;exitX=1;exitY=0;exitDx=0;exitDy=0;" edge="1" parent="1" source="pV_YJKQzZUWr_kF0XKjs-11" target="pV_YJKQzZUWr_kF0XKjs-6">
          <mxGeometry width="50" height="50" relative="1" as="geometry">
            <mxPoint x="530" y="270" as="sourcePoint" />
            <mxPoint x="580" y="220" as="targetPoint" />
          </mxGeometry>
        </mxCell>
        <mxCell id="pV_YJKQzZUWr_kF0XKjs-14" value="" style="endArrow=classic;html=1;rounded=0;entryX=0.108;entryY=0.763;entryDx=0;entryDy=0;entryPerimeter=0;" edge="1" parent="1" target="pV_YJKQzZUWr_kF0XKjs-11">
          <mxGeometry width="50" height="50" relative="1" as="geometry">
            <mxPoint x="350" y="400" as="sourcePoint" />
            <mxPoint x="400" y="350" as="targetPoint" />
          </mxGeometry>
        </mxCell>
        <mxCell id="pV_YJKQzZUWr_kF0XKjs-15" value="" style="endArrow=classic;html=1;rounded=0;exitX=1;exitY=0.5;exitDx=0;exitDy=0;entryX=0;entryY=0.5;entryDx=0;entryDy=0;" edge="1" parent="1" source="pV_YJKQzZUWr_kF0XKjs-11" target="pV_YJKQzZUWr_kF0XKjs-8">
          <mxGeometry width="50" height="50" relative="1" as="geometry">
            <mxPoint x="530" y="330" as="sourcePoint" />
            <mxPoint x="580" y="280" as="targetPoint" />
          </mxGeometry>
        </mxCell>
        <mxCell id="pV_YJKQzZUWr_kF0XKjs-19" value="ϵ, 1" style="edgeLabel;html=1;align=center;verticalAlign=middle;resizable=0;points=[];" vertex="1" connectable="0" parent="pV_YJKQzZUWr_kF0XKjs-15">
          <mxGeometry x="-0.0568" y="3" relative="1" as="geometry">
            <mxPoint as="offset" />
          </mxGeometry>
        </mxCell>
        <mxCell id="pV_YJKQzZUWr_kF0XKjs-16" value="" style="endArrow=classic;html=1;rounded=0;entryX=0.8;entryY=0.963;entryDx=0;entryDy=0;entryPerimeter=0;exitX=0.333;exitY=0;exitDx=0;exitDy=0;exitPerimeter=0;" edge="1" parent="1" source="pV_YJKQzZUWr_kF0XKjs-8" target="pV_YJKQzZUWr_kF0XKjs-6">
          <mxGeometry width="50" height="50" relative="1" as="geometry">
            <mxPoint x="820" y="270" as="sourcePoint" />
            <mxPoint x="870" y="220" as="targetPoint" />
          </mxGeometry>
        </mxCell>
        <mxCell id="pV_YJKQzZUWr_kF0XKjs-20" value="ϵ,0" style="edgeLabel;html=1;align=center;verticalAlign=middle;resizable=0;points=[];" vertex="1" connectable="0" parent="pV_YJKQzZUWr_kF0XKjs-16">
          <mxGeometry x="-0.0934" y="2" relative="1" as="geometry">
            <mxPoint as="offset" />
          </mxGeometry>
        </mxCell>
        <mxCell id="pV_YJKQzZUWr_kF0XKjs-17" value="" style="endArrow=classic;html=1;rounded=0;exitX=0;exitY=1;exitDx=0;exitDy=0;entryX=1;entryY=1;entryDx=0;entryDy=0;curved=1;" edge="1" parent="1" source="pV_YJKQzZUWr_kF0XKjs-8" target="pV_YJKQzZUWr_kF0XKjs-11">
          <mxGeometry width="50" height="50" relative="1" as="geometry">
            <mxPoint x="580" y="350" as="sourcePoint" />
            <mxPoint x="530" y="400" as="targetPoint" />
            <Array as="points">
              <mxPoint x="670" y="450" />
            </Array>
          </mxGeometry>
        </mxCell>
        <mxCell id="pV_YJKQzZUWr_kF0XKjs-18" value="0" style="edgeLabel;html=1;align=center;verticalAlign=middle;resizable=0;points=[];" vertex="1" connectable="0" parent="pV_YJKQzZUWr_kF0XKjs-17">
          <mxGeometry x="-0.1338" y="-39" relative="1" as="geometry">
            <mxPoint as="offset" />
          </mxGeometry>
        </mxCell>
      </root>
    </mxGraphModel>
  </diagram>
</mxfile>
